<svg width="196" height="33" viewBox="0 0 196 33" fill="none" xmlns="http://www.w3.org/2000/svg">
<path d="M12.4371 7.97547C14.1336 4.93331 14.9812 3.41223 16.2492 3.41223C17.5172 3.41223 18.3648 4.93331 20.0612 7.97547L20.5004 8.76279C20.9825 9.62777 21.2235 10.0603 21.5984 10.3455C21.9733 10.6307 22.4419 10.7364 23.3792 10.948L24.2308 11.1408C27.5247 11.8866 29.1703 12.2589 29.5626 13.5188C29.9536 14.7775 28.8315 16.091 26.5861 18.7168L26.005 19.3956C25.3676 20.1414 25.0476 20.515 24.9043 20.9756C24.7611 21.4376 24.8093 21.9357 24.9057 22.9305L24.994 23.837C25.3328 27.3411 25.5028 29.0925 24.4772 29.8704C23.4515 30.6484 21.909 29.9387 18.8267 28.5194L18.0273 28.1525C17.1516 27.7482 16.7138 27.5473 16.2492 27.5473C15.7845 27.5473 15.3467 27.7482 14.471 28.1525L13.673 28.5194C10.5893 29.9387 9.0468 30.6484 8.02248 29.8718C6.99549 29.0925 7.16554 27.3411 7.5043 23.837L7.59267 22.9319C7.68908 21.9357 7.73728 21.4376 7.59267 20.9769C7.45074 20.515 7.13073 20.1414 6.49337 19.397L5.91226 18.7168C3.66679 16.0924 2.54472 14.7788 2.93571 13.5188C3.32669 12.2589 4.97497 11.8853 8.26886 11.1408L9.12045 10.948C10.0564 10.7364 10.5237 10.6307 10.8999 10.3455C11.2762 10.0603 11.5159 9.62777 11.9979 8.76279L12.4371 7.97547Z" fill="#029C9F"/>
<path d="M53.1421 7.97547C54.8385 4.93331 55.6861 3.41223 56.9541 3.41223C58.2221 3.41223 59.0697 4.93331 60.7662 7.97547L61.2054 8.76279C61.6874 9.62777 61.9284 10.0603 62.3033 10.3455C62.6783 10.6307 63.1469 10.7364 64.0842 10.948L64.9358 11.1408C68.2297 11.8866 69.8753 12.2589 70.2676 13.5188C70.6586 14.7775 69.5365 16.091 67.291 18.7168L66.7099 19.3956C66.0726 20.1414 65.7526 20.515 65.6093 20.9756C65.466 21.4376 65.5142 21.9357 65.6106 22.9305L65.699 23.837C66.0378 27.3411 66.2078 29.0925 65.1821 29.8704C64.1565 30.6484 62.614 29.9387 59.5317 28.5194L58.7323 28.1525C57.8566 27.7482 57.4187 27.5473 56.9541 27.5473C56.4895 27.5473 56.0517 27.7482 55.176 28.1525L54.3779 28.5194C51.2943 29.9387 49.7518 30.6484 48.7274 29.8718C47.7004 29.0925 47.8705 27.3411 48.2093 23.837L48.2976 22.9319C48.394 21.9357 48.4422 21.4376 48.2976 20.9769C48.1557 20.515 47.8357 20.1414 47.1983 19.397L46.6172 18.7168C44.3717 16.0924 43.2497 14.7788 43.6407 13.5188C44.0316 12.2589 45.6799 11.8853 48.9738 11.1408L49.8254 10.948C50.7613 10.7364 51.2287 10.6307 51.6049 10.3455C51.9812 10.0603 52.2208 9.62777 52.7029 8.76279L53.1421 7.97547Z" fill="#029C9F"/>
<path d="M93.8469 7.97547C95.5434 4.93331 96.391 3.41223 97.659 3.41223C98.927 3.41223 99.7746 4.93331 101.471 7.97547L101.91 8.76279C102.392 9.62777 102.633 10.0603 103.008 10.3455C103.383 10.6307 103.852 10.7364 104.789 10.948L105.641 11.1408C108.935 11.8866 110.58 12.2589 110.972 13.5188C111.363 14.7775 110.241 16.091 107.996 18.7168L107.415 19.3956C106.777 20.1414 106.457 20.515 106.314 20.9756C106.171 21.4376 106.219 21.9357 106.316 22.9305L106.404 23.837C106.743 27.3411 106.913 29.0925 105.887 29.8704C104.861 30.6484 103.319 29.9387 100.237 28.5194L99.4372 28.1525C98.5615 27.7482 98.1236 27.5473 97.659 27.5473C97.1944 27.5473 96.7565 27.7482 95.8809 28.1525L95.0828 28.5194C91.9992 29.9387 90.4567 30.6484 89.4323 29.8718C88.4053 29.0925 88.5754 27.3411 88.9142 23.837L89.0025 22.9319C89.0989 21.9357 89.1471 21.4376 89.0025 20.9769C88.8606 20.515 88.5406 20.1414 87.9032 19.397L87.3221 18.7168C85.0766 16.0924 83.9546 14.7788 84.3456 13.5188C84.7365 12.2589 86.3848 11.8853 89.6787 11.1408L90.5303 10.948C91.4662 10.7364 91.9335 10.6307 92.3098 10.3455C92.6861 10.0603 92.9257 9.62777 93.4078 8.76279L93.8469 7.97547Z" fill="#029C9F"/>
<path d="M134.552 7.97547C136.248 4.93331 137.096 3.41223 138.364 3.41223C139.632 3.41223 140.48 4.93331 142.176 7.97547L142.615 8.76279C143.097 9.62777 143.338 10.0603 143.713 10.3455C144.088 10.6307 144.557 10.7364 145.494 10.948L146.346 11.1408C149.64 11.8866 151.285 12.2589 151.677 13.5188C152.068 14.7775 150.946 16.091 148.701 18.7168L148.12 19.3956C147.482 20.1414 147.162 20.515 147.019 20.9756C146.876 21.4376 146.924 21.9357 147.02 22.9305L147.109 23.837C147.448 27.3411 147.618 29.0925 146.592 29.8704C145.566 30.6484 144.024 29.9387 140.942 28.5194L140.142 28.1525C139.266 27.7482 138.829 27.5473 138.364 27.5473C137.899 27.5473 137.462 27.7482 136.586 28.1525L135.788 28.5194C132.704 29.9387 131.162 30.6484 130.137 29.8718C129.11 29.0925 129.28 27.3411 129.619 23.837L129.707 22.9319C129.804 21.9357 129.852 21.4376 129.707 20.9769C129.566 20.515 129.246 20.1414 128.608 19.397L128.027 18.7168C125.782 16.0924 124.66 14.7788 125.051 13.5188C125.441 12.2589 127.09 11.8853 130.384 11.1408L131.235 10.948C132.171 10.7364 132.639 10.6307 133.015 10.3455C133.391 10.0603 133.631 9.62777 134.113 8.76279L134.552 7.97547Z" fill="#029C9F"/>
<path d="M175.257 7.97547C176.953 4.93331 177.801 3.41223 179.069 3.41223C180.337 3.41223 181.185 4.93331 182.881 7.97547L183.32 8.76279C183.802 9.62777 184.043 10.0603 184.418 10.3455C184.793 10.6307 185.262 10.7364 186.199 10.948L187.051 11.1408C190.344 11.8866 191.99 12.2589 192.382 13.5188C192.773 14.7775 191.651 16.091 189.406 18.7168L188.825 19.3956C188.187 20.1414 187.867 20.515 187.724 20.9756C187.581 21.4376 187.629 21.9357 187.725 22.9305L187.814 23.837C188.153 27.3411 188.323 29.0925 187.297 29.8704C186.271 30.6484 184.729 29.9387 181.646 28.5194L180.847 28.1525C179.971 27.7482 179.534 27.5473 179.069 27.5473C178.604 27.5473 178.166 27.7482 177.291 28.1525L176.493 28.5194C173.409 29.9387 171.867 30.6484 170.842 29.8718C169.815 29.0925 169.985 27.3411 170.324 23.837L170.412 22.9319C170.509 21.9357 170.557 21.4376 170.412 20.9769C170.271 20.515 169.95 20.1414 169.313 19.397L168.732 18.7168C166.487 16.0924 165.364 14.7788 165.755 13.5188C166.146 12.2589 167.795 11.8853 171.089 11.1408L171.94 10.948C172.876 10.7364 173.343 10.6307 173.72 10.3455C174.096 10.0603 174.336 9.62777 174.818 8.76279L175.257 7.97547Z" fill="#029C9F"/>
</svg>
