<svg width="36" height="37" viewBox="0 0 36 37" fill="none" xmlns="http://www.w3.org/2000/svg">
<path d="M5.79617 24.9325C4.50917 19.7845 3.86567 17.212 5.21717 15.481C6.56867 13.75 9.22217 13.75 14.5277 13.75H21.4727C26.7797 13.75 29.4317 13.75 30.7832 15.481C32.1347 17.212 31.4912 19.786 30.2042 24.9325C29.3852 28.207 28.9772 29.8435 27.7562 30.7975C26.5352 31.75 24.8477 31.75 21.4727 31.75H14.5277C11.1527 31.75 9.46517 31.75 8.24417 30.7975C7.02317 29.8435 6.61367 28.207 5.79617 24.9325Z" stroke="#1C2820" stroke-width="2.25"/>
<path d="M29.2501 14.5L28.1851 10.5925C27.7741 9.085 27.5686 8.332 27.1471 7.7635C26.7269 7.1987 26.1561 6.7636 25.5001 6.508C24.8401 6.25 24.0601 6.25 22.5001 6.25M6.75012 14.5L7.81512 10.5925C8.22612 9.085 8.43162 8.332 8.85312 7.7635C9.27339 7.1987 9.84416 6.7636 10.5001 6.508C11.1601 6.25 11.9401 6.25 13.5001 6.25" stroke="#1C2820" stroke-width="2.25"/>
<path d="M13.5001 6.25C13.5001 5.85218 13.6582 5.47064 13.9395 5.18934C14.2208 4.90804 14.6023 4.75 15.0001 4.75H21.0001C21.3979 4.75 21.7795 4.90804 22.0608 5.18934C22.3421 5.47064 22.5001 5.85218 22.5001 6.25C22.5001 6.64782 22.3421 7.02936 22.0608 7.31066C21.7795 7.59196 21.3979 7.75 21.0001 7.75H15.0001C14.6023 7.75 14.2208 7.59196 13.9395 7.31066C13.6582 7.02936 13.5001 6.64782 13.5001 6.25Z" stroke="#1C2820" stroke-width="2.25"/>
<path d="M6.75012 27.25L18.0001 13.75M29.2501 27.25L18.7501 14.5M6.75012 15.25L18.0001 31.75L29.2501 15.25" stroke="#1C2820" stroke-width="2.25" stroke-linecap="round" stroke-linejoin="round"/>
</svg>
